<svg aria-label="LM Studio" version="1.1" viewBox="0 0 64 64" xmlns="http://www.w3.org/2000/svg">
 <defs>
  <linearGradient id="a" x2="64" y1="64" gradientTransform="matrix(.86822 0 0 .86822 4.2171 -59.783)" gradientUnits="userSpaceOnUse">
   <stop stop-color="#6c78ef" offset="0"/>
   <stop stop-color="#4f14be" offset="1"/>
  </linearGradient>
  <filter id="b" x="-.20616" y="-.19013" width="1.4123" height="1.3803" color-interpolation-filters="sRGB">
   <feGaussianBlur stdDeviation="52.305522"/>
  </filter>
 </defs>
 <rect transform="rotate(90)" x="4.2171" y="-59.783" width="55.566" height="55.566" rx="12.546" ry="12.358" fill="url(#a)" stroke="#0e0623" stroke-opacity=".41791" stroke-width=".4341"/>
 <g transform="matrix(.027535 0 0 .027535 16.627 13.698)" fill="none" filter="url(#b)" stroke="#fff" stroke-linecap="round" stroke-linejoin="round" stroke-width="156.31">
  <path transform="rotate(-69.005)" d="m-5.899 772.94a450 450 0 0 1-368.23 442.51 450 450 0 0 1-502.05-281.68 450 450 0 0 1 185.76-544.88 450 450 0 0 1 569.57 83.651"/>
  <path d="m558.28 689.17v-512.4"/>
 </g>
 <g transform="matrix(.027535 0 0 .027535 16.627 13.698)" fill="none" stroke="#ff0039" stroke-linecap="round" stroke-linejoin="round" stroke-opacity=".99887" stroke-width="120">
  <path transform="rotate(-69.005)" d="m-5.899 772.94a450 450 0 0 1-368.23 442.51 450 450 0 0 1-502.05-281.68 450 450 0 0 1 185.76-544.88 450 450 0 0 1 569.57 83.651"/>
  <path d="m558.28 689.17v-512.4"/>
 </g>
</svg>
